<svg id="Layer_1" data-name="Layer 1" xmlns="http://www.w3.org/2000/svg" viewBox="0 0 1013.94 1036.13"><defs><style>.cls-1{fill:#5858ff;}</style></defs><path class="cls-1" d="M708.57,917.88C500.75,994.53,270.15,888.19,193.5,680.37S223.19,242,431,165.31c139.8-51.56,289.91-20.31,396.53,68.93h0c58.76-21.68,66.49-101.59,13-134.19C709.31,20,543.87-1,388.58,57.3c-265.08,99.56-400.42,392-305.85,658,96.07,270.28,391.82,410.89,662,314.46,156.82-56,269.67-179.51,317.94-325.89,19.73-59.85-38.43-116-97.55-94.2h0C941.45,746.1,847.78,866.54,708.57,917.88Z" transform="translate(-52.62 -24.07)"/><path class="cls-1" d="M118.25,372.57C203.68,280,304.62,345.44,463,277,614.36,211.59,693.56,83,780.93,100.92c31.42,6.43,52.3,33.8,64.25,53.6C791.59,214.45,685,317.72,517.91,386.9c-188.27,78-355.4,72.09-437.06,63.78C84.93,429.49,94.18,398.63,118.25,372.57Z" transform="translate(-52.62 -24.07)"/><path class="cls-1" d="M1008.27,709.49C924.31,800.19,825.53,736,670,803,521.37,867,443.27,992.88,357.55,975.22c-30.83-6.36-51.29-33.25-63-52.69,52.68-58.75,157.47-160,321.5-227.63,184.87-76.27,348.89-70.28,429-62C1041,653.68,1031.93,683.94,1008.27,709.49Z" transform="translate(-52.62 -24.07)"/><path class="cls-1" d="M798.18,191.26l-34,38.92A1575.14,1575.14,0,0,0,401.88,976.57l-.8,4.27L297.85,983l27.33-112.85A1575.07,1575.07,0,0,1,661.63,214L769.75,88.25Z" transform="translate(-52.62 -24.07)"/></svg>